<?xml version="1.0" encoding="utf-8"?>
<!-- Generator: Adobe Illustrator 25.0.1, SVG Export Plug-In . SVG Version: 6.00 Build 0)  -->
<!DOCTYPE svg PUBLIC "-//W3C//DTD SVG 1.1//EN" "http://www.w3.org/Graphics/SVG/1.1/DTD/svg11.dtd" [
	<!ENTITY ns_extend "http://ns.adobe.com/Extensibility/1.0/">
	<!ENTITY ns_ai "http://ns.adobe.com/AdobeIllustrator/10.0/">
	<!ENTITY ns_graphs "http://ns.adobe.com/Graphs/1.0/">
	<!ENTITY ns_vars "http://ns.adobe.com/Variables/1.0/">
	<!ENTITY ns_imrep "http://ns.adobe.com/ImageReplacement/1.0/">
	<!ENTITY ns_sfw "http://ns.adobe.com/SaveForWeb/1.0/">
	<!ENTITY ns_custom "http://ns.adobe.com/GenericCustomNamespace/1.0/">
	<!ENTITY ns_adobe_xpath "http://ns.adobe.com/XPath/1.0/">
]>
<svg version="1.1" id="Layer_1" xmlns:x="&ns_extend;" xmlns:i="&ns_ai;" xmlns:graph="&ns_graphs;"
	 xmlns="http://www.w3.org/2000/svg" xmlns:xlink="http://www.w3.org/1999/xlink" x="0px" y="0px" width="89.688px"
	 height="77.623px" viewBox="0 0 89.688 77.623" style="enable-background:new 0 0 89.688 77.623;" xml:space="preserve">
<style type="text/css">
	.st0{fill:#004A98;}
	.st1{fill:#00A0DF;}
	.st2{fill:#FFFFFF;}
	.st3{fill:#1D1D1B;}
</style>
<metadata>
	<sfw  xmlns="&ns_sfw;">
		<slices></slices>
		<sliceSourceBounds  bottomLeftOrigin="true" height="89.705" width="57.349" x="270.651" y="-352.062"></sliceSourceBounds>
	</sfw>
</metadata>
<path class="st0" d="M40.731,12.394c0.085,1.287,0.162,2.574,0.244,3.862c0.01,0.164,0.032,0.329,0.031,0.492
	c-0.002,0.184,0.094,0.273,0.256,0.321c0.105,0.03,0.208,0.068,0.314,0.097c1.712,0.466,3.433,0.842,5.215,0.926
	c1.944,0.09,3.87-0.005,5.781-0.366c0.44-0.084,0.874-0.203,1.31-0.305c0.635-4.713,1.369-9.362,1.721-14.132
	C50.502,1.884,45.416,2.083,40.29,3.137c0,0.186-0.004,0.321,0,0.456c0.056,1.647,0.095,3.294,0.176,4.939
	C40.527,9.82,40.645,11.106,40.731,12.394"/>
<path class="st1" d="M31.154,39.157c-0.041-0.105-0.137-0.203-0.23-0.272c-0.585-0.431-1.175-0.859-1.769-1.278
	c-2.065-1.454-4.132-2.906-6.198-4.359c-0.033-0.024-0.068-0.046-0.1-0.072c-0.295-0.238-0.32-0.395-0.096-0.697
	c0.146-0.199,0.309-0.386,0.459-0.582c0.346-0.453,0.607-0.947,0.725-1.509c0.066-0.312,0.08-0.627-0.047-0.93
	c-0.195-0.466-0.631-0.584-1.034-0.286c-0.434,0.32-0.649,0.776-0.762,1.28c-0.077,0.348-0.119,0.702-0.173,1.054
	c-0.024,0.165-0.097,0.288-0.269,0.321c-0.168,0.033-0.296-0.037-0.379-0.182c-0.047-0.084-0.078-0.175-0.121-0.262
	c-0.274-0.554-0.563-1.1-1.024-1.53c-0.392-0.37-0.856-0.597-1.39-0.656c-0.384-0.042-0.715,0.172-0.861,0.508
	c-0.135,0.312-0.065,0.6,0.273,0.866c0.244,0.195,0.518,0.36,0.798,0.497c0.356,0.175,0.733,0.308,1.1,0.46
	c0.076,0.031,0.156,0.055,0.228,0.094c0.159,0.086,0.261,0.212,0.198,0.402c-0.062,0.182-0.213,0.253-0.392,0.227
	c-0.148-0.023-0.292-0.076-0.435-0.118c-0.421-0.123-0.839-0.26-1.263-0.367c-0.562-0.141-1.028,0.041-1.402,0.472
	c-0.372,0.429-0.252,0.918,0.294,1.096c0.379,0.122,0.777,0.183,1.177,0.078c0.343-0.093,0.685-0.197,1.029-0.294
	c0.105-0.029,0.209-0.069,0.317-0.077c0.148-0.011,0.296,0.046,0.313,0.203c0.011,0.12-0.032,0.268-0.101,0.368
	c-0.055,0.078-0.186,0.107-0.284,0.151c-0.236,0.11-0.481,0.203-0.71,0.326c-0.552,0.296-0.899,0.755-1.033,1.367
	c-0.11,0.51,0.168,0.858,0.69,0.894c0.341,0.023,0.649-0.063,0.943-0.231c0.551-0.319,0.977-0.75,1.242-1.332
	c0.044-0.1,0.085-0.203,0.142-0.297c0.147-0.242,0.361-0.268,0.588-0.096c0.293,0.222,0.59,0.441,0.893,0.649
	c0.745,0.516,1.5,1.016,2.237,1.541c0.76,0.542,1.502,1.109,2.256,1.66c1.486,1.082,2.977,2.158,4.465,3.24
	c0.244,0.177,0.479,0.364,0.743,0.565c0-0.081,0.011-0.124-0.001-0.158C31.846,40.977,31.506,40.064,31.154,39.157"/>
<path class="st2" d="M41.04,17.65c0.023,0.653,0.042,1.24,0.065,1.829c0.022,0.587,0.049,1.174,0.072,1.746
	c2.878,1.122,9.595,1.493,12.15,0.666c0.1-1.25,0.329-2.469,0.425-3.715C49.45,19.114,45.239,19.062,41.04,17.65"/>
<path class="st1" d="M72.426,34.472c-0.26-0.228-0.573-0.317-0.91-0.34c-0.444-0.03-0.876,0.044-1.292,0.199
	c-0.243,0.09-0.48,0.201-0.725,0.291c-0.232,0.086-0.421,0.025-0.495-0.143c-0.077-0.173-0.005-0.343,0.215-0.474
	c0.129-0.076,0.277-0.124,0.404-0.201c0.457-0.278,0.927-0.538,1.354-0.855c0.222-0.164,0.407-0.415,0.53-0.666
	c0.209-0.43,0.018-0.767-0.452-0.846c-0.628-0.107-1.222-0.011-1.655,0.498c-0.3,0.352-0.563,0.741-0.802,1.139
	c-0.176,0.292-0.29,0.621-0.42,0.938c-0.075,0.181-0.177,0.313-0.392,0.292c-0.183-0.019-0.278-0.161-0.285-0.431
	c-0.006-0.22,0.007-0.44-0.004-0.659c-0.02-0.402-0.108-0.79-0.308-1.142c-0.233-0.412-0.68-0.603-1.12-0.503
	c-0.432,0.099-0.684,0.435-0.72,0.935c-0.027,0.374,0.09,0.703,0.295,1.006c0.279,0.415,0.629,0.758,1.042,1.041
	c0.335,0.228,0.351,0.478,0.051,0.729c-0.554,0.47-1.11,0.94-1.674,1.399c-1.555,1.265-3.118,2.521-4.67,3.788
	c-0.479,0.391-0.938,0.805-1.404,1.21c-0.145,0.127-0.297,0.209-0.48,0.084c-0.156-0.107-0.18-0.294-0.076-0.518
	c0.024-0.048,0.055-0.094,0.081-0.143c0.351-0.668,0.718-1.327,1.048-2.005c1.612-3.304,3.216-6.612,4.817-9.921
	c0.921-1.901,1.832-3.806,2.746-5.711c0.081-0.167,0.151-0.339,0.238-0.54c-0.174-0.011-0.283-0.022-0.392-0.023
	c-2.28-0.022-4.559-0.032-6.839-0.07c-0.919-0.015-1.836-0.094-2.754-0.139c-0.699-0.034-1.398-0.071-2.097-0.089
	c-0.439-0.011-0.877,0.002-1.314,0.02c-0.381,0.015-0.763,0.044-1.143,0.084c-0.3,0.032-0.596,0.096-0.896,0.133
	c-1.723,0.213-3.449,0.204-5.18,0.096c-2.081-0.129-4.104-0.558-6.095-1.143c-0.493-0.146-0.989-0.23-1.494-0.256
	c-1.453-0.076-2.906-0.136-4.359-0.187c-0.947-0.033-1.895-0.051-2.842-0.054c-2.06-0.007-4.12,0.002-6.179,0.005h-0.506
	c0.033,0.131,0.045,0.196,0.067,0.258C26.316,24.281,27.3,27,28.344,29.7c1.929,4.988,3.724,10.028,5.669,15.01
	c2.449,6.273,4.865,12.557,7.149,18.892c0.145,0.401,0.268,0.81,0.45,1.193c0.123,0.26,0.168,0.511,0.162,0.79
	c-0.031,1.497-0.042,2.994-0.083,4.489c-0.048,1.826-0.112,3.651-0.181,5.475c-0.09,2.359-0.197,4.718-0.286,7.077
	c-0.025,0.686-0.006,1.372-0.023,2.059c-0.01,0.38-0.218,0.511-0.572,0.413c-0.687-0.19-1.373-0.383-2.064-0.551
	c-0.996-0.243-2.002-0.302-3.024-0.167c-1.246,0.166-2.305,0.685-3.17,1.593c-0.377,0.396-0.563,0.873-0.551,1.421
	c0.023,1.085,0.609,1.852,1.497,2.354c1.217,0.69,2.554,0.942,3.939,0.705c2.056-0.352,3.931-1.18,5.701-2.268
	c0.154-0.094,0.226-0.208,0.23-0.399c0.02-0.878,0.046-1.757,0.09-2.635c0.063-1.247,0.136-2.494,0.222-3.74
	c0.073-1.04,0.193-2.077,0.26-3.118c0.122-1.918,0.216-3.838,0.331-5.755c0.113-1.905,0.238-3.809,0.359-5.714
	c0.007-0.122,0.023-0.246,0.047-0.366c0.031-0.154,0.138-0.245,0.29-0.239c0.153,0.006,0.257,0.108,0.282,0.257
	c0.02,0.12,0.011,0.245,0.003,0.369c-0.128,2.233-0.281,4.467-0.383,6.701c-0.123,2.729-0.329,5.452-0.529,8.176
	c-0.137,1.861-0.232,3.727-0.295,5.592c-0.037,1.113-0.251,0.927,0.918,1.515c1.463,0.735,3.002,1.296,4.627,1.55
	c1.295,0.203,2.571,0.089,3.788-0.461c0.906-0.409,1.388-1.109,1.429-2.085c0.04-0.939-0.317-1.728-1.111-2.257
	c-0.646-0.431-1.384-0.684-2.149-0.784c-1.472-0.191-2.864,0.111-4.179,0.79c-0.285,0.148-0.477,0.064-0.531-0.258
	c-0.033-0.203-0.051-0.411-0.05-0.614c0.003-0.645,0.007-1.29,0.033-1.935c0.059-1.467,0.114-2.935,0.205-4.4
	c0.106-1.685,0.251-3.366,0.376-5.05c0.142-1.902,0.262-3.807,0.431-5.706c0.079-0.899,0.242-1.777,0.61-2.629
	c1.13-2.618,2.194-5.266,3.3-7.896c1.319-3.134,2.668-6.257,3.979-9.396c0.287-0.69,0.676-1.26,1.266-1.727
	c1.002-0.793,1.994-1.6,2.937-2.459c2.509-2.283,5.083-4.493,7.685-6.668c0.148-0.124,0.296-0.245,0.45-0.361
	c0.387-0.29,0.586-0.225,0.789,0.212c0.168,0.361,0.359,0.71,0.567,1.047c0.107,0.171,0.254,0.33,0.415,0.452
	c0.286,0.218,0.619,0.225,0.936,0.077c0.293-0.138,0.369-0.42,0.38-0.724c0.012-0.34-0.115-0.628-0.365-0.84
	c-0.27-0.23-0.57-0.424-0.859-0.63c-0.09-0.064-0.216-0.097-0.272-0.179c-0.069-0.102-0.129-0.25-0.11-0.362
	c0.028-0.164,0.187-0.237,0.352-0.217c0.134,0.016,0.267,0.061,0.396,0.107c0.501,0.177,1.018,0.238,1.542,0.178
	c0.238-0.028,0.487-0.099,0.699-0.211C72.779,35.165,72.8,34.8,72.426,34.472 M53.509,25.978c0.068-0.021,0.142-0.072,0.202-0.059
	c0.695,0.145,1.157,0.578,1.34,1.246c0.29,1.055-0.002,1.976-0.773,2.744c-0.213,0.211-0.344,0.253-0.639,0.223
	c0.054-0.061,0.085-0.123,0.136-0.151c0.828-0.451,1.402-1.614,1.043-2.784c-0.146-0.475-0.456-0.837-0.96-0.992
	c-0.123-0.038-0.239-0.095-0.359-0.144C53.502,26.034,53.505,26.007,53.509,25.978 M48.405,26.507
	c0.103-0.186,0.256-0.362,0.427-0.488c0.41-0.298,0.901-0.177,1.162,0.258c0.33,0.548,0.383,1.16,0.393,1.779
	c0.02,0.59-0.127,1.141-0.379,1.666c-0.087,0.183-0.202,0.36-0.334,0.514c-0.387,0.448-1.002,0.413-1.319-0.09
	c-0.163-0.263-0.31-0.559-0.371-0.859C47.789,28.317,47.923,27.378,48.405,26.507 M42.939,26.662c0.031-0.06,0.066-0.12,0.103-0.177
	c0.499-0.785,1.297-0.752,1.734,0.079c0.235,0.444,0.27,0.943,0.316,1.433c0.007,0.081,0.001,0.164,0.001,0.295
	c0.017,0.48-0.096,0.986-0.282,1.476c-0.058,0.151-0.129,0.312-0.238,0.426c-0.512,0.53-1.108,0.544-1.644-0.114
	c-0.142-0.173-0.239-0.405-0.296-0.624C42.384,28.49,42.491,27.556,42.939,26.662 M39.282,26.017
	c0.299-0.268,0.651-0.396,1.037-0.455c0.059-0.009,0.124,0.022,0.186,0.035c0.011,0.04,0.023,0.078,0.034,0.118
	c-0.396,0.129-0.824,0.182-1.134,0.496c-0.297,0.3-0.514,0.631-0.607,1.05c-0.094,0.426-0.133,0.856,0.056,1.25
	c0.174,0.361,0.428,0.682,0.653,1.03c-0.098,0.108-0.183,0.012-0.257-0.057c-0.434-0.395-0.696-0.89-0.737-1.472
	C38.46,27.238,38.682,26.555,39.282,26.017 M54.959,34.57c0,0.238-0.008,0.482,0.002,0.724c0.115,2.945-0.335,5.799-1.405,8.546
	c-0.571,1.468-1.435,2.749-2.631,3.783c-0.964,0.832-2.084,1.341-3.341,1.585c-2.141,0.415-4.124-0.028-5.987-1.07
	c-1.231-0.689-2.224-1.647-2.882-2.919c-0.859-1.661-1.397-3.421-1.621-5.279c-0.129-1.079-0.215-2.16-0.164-3.246
	c0.034-0.738,0.119-1.476,0.181-2.213c0.006-0.068,0.007-0.135,0.014-0.234c-0.605-0.197-1.111-0.486-1.514-0.938
	c-0.043-0.048-0.043-0.136-0.005-0.247c0.068,0.05,0.14,0.096,0.2,0.153c0.491,0.462,1.038,0.808,1.735,0.845
	c0.689,0.036,1.217-0.253,1.639-0.781c0.095-0.118,0.138-0.311,0.345-0.314c0.005,0.562-0.77,1.153-1.775,1.348
	c-0.051,0.533-0.126,1.074-0.15,1.619c-0.084,1.927,0.048,3.842,0.481,5.725c0.269,1.166,0.693,2.285,1.272,3.335
	c0.94,1.704,2.439,2.703,4.246,3.304c1.448,0.481,2.915,0.523,4.382,0.142c0.938-0.244,1.794-0.683,2.526-1.331
	c1.332-1.179,2.184-2.663,2.735-4.335c0.706-2.141,1.048-4.341,1.074-6.593c0.005-0.534,0.001-1.066,0.001-1.611
	c-0.679-0.194-1.262-0.461-1.668-1.017c0.177-0.15,0.235-0.018,0.308,0.05c0.423,0.389,0.897,0.68,1.486,0.721
	c0.789,0.057,1.47-0.137,1.917-0.853c0.024-0.039,0.078-0.06,0.128-0.097C56.592,33.883,55.966,34.365,54.959,34.57"/>
<path class="st3" d="M36.767,91.273l-1.003-0.002c-0.084-0.017-0.168-0.032-0.251-0.047c-0.182-0.032-0.373-0.065-0.553-0.124
	c-0.146-0.048-0.297-0.094-0.443-0.139c-0.477-0.146-0.97-0.298-1.417-0.526c-1.037-0.529-1.683-1.332-1.918-2.387
	c-0.221-0.988,0.005-1.848,0.668-2.557c1.009-1.078,2.328-1.703,3.917-1.86c1.268-0.125,2.506,0.059,3.654,0.274
	c0.238,0.045,0.46,0.135,0.697,0.232c0.095,0.038,0.193,0.078,0.292,0.116c0.007-0.023,0.015-0.045,0.022-0.066
	c0.022-0.064,0.042-0.12,0.044-0.173c0.008-0.172,0.01-0.348,0.012-0.518c0.002-0.126,0.004-0.256,0.008-0.386l0.046-1.404
	c0.05-1.55,0.101-3.152,0.157-4.729c0.061-1.723,0.126-3.475,0.19-5.168c0.046-1.282,0.094-2.564,0.14-3.846
	c0.022-0.608,0.049-1.409,0.061-2.223c0.003-0.178-0.026-0.357-0.08-0.505c-0.335-0.914-0.676-1.845-1.006-2.745
	c-0.987-2.696-2.008-5.484-3.043-8.215c-0.995-2.618-2.037-5.269-3.046-7.831c-0.378-0.964-0.77-1.961-1.154-2.941
	c-0.052-0.135-0.113-0.23-0.181-0.282c-0.177-0.138-0.356-0.276-0.534-0.413c-0.798-0.616-1.621-1.253-2.448-1.853
	c-0.901-0.654-1.826-1.308-2.721-1.94c-0.571-0.404-1.164-0.822-1.743-1.236c-0.691-0.493-1.39-0.999-2.067-1.49
	c-0.368-0.267-0.736-0.534-1.105-0.8l-0.011-0.008c-0.072-0.051-0.146-0.106-0.225-0.14c-0.064-0.028-0.135-0.047-0.208-0.068
	c-0.025-0.007-0.051-0.013-0.077-0.02c-0.011,0.015-0.024,0.031-0.035,0.046c-0.033,0.046-0.065,0.088-0.089,0.133
	c-0.343,0.654-0.911,1.047-1.471,1.373c-0.389,0.225-0.841,0.304-1.382,0.24c-0.405-0.047-0.748-0.251-0.969-0.575
	c-0.231-0.339-0.3-0.778-0.187-1.206c0.058-0.22,0.157-0.431,0.252-0.636c0.037-0.078,0.077-0.16,0.112-0.241
	c0.025-0.059,0.059-0.115,0.094-0.174c0.008-0.014,0.015-0.028,0.024-0.042l-0.492-0.088c-0.33-0.059-0.625-0.218-0.879-0.475
	c-0.417-0.418-0.492-1.019-0.193-1.529c0.245-0.416,0.612-0.733,1.092-0.943c0.059-0.026,0.12-0.047,0.189-0.073
	c0.02-0.006,0.041-0.014,0.063-0.021c-0.01-0.012-0.02-0.024-0.028-0.035c-0.041-0.052-0.077-0.098-0.112-0.146
	c-0.352-0.48-0.421-0.964-0.205-1.434c0.265-0.578,0.717-0.902,1.308-0.937c0.727-0.042,1.414,0.231,2.04,0.811
	c0.221,0.205,0.409,0.435,0.606,0.678c0.072,0.089,0.146,0.179,0.221,0.268c0.011-0.03,0.021-0.06,0.032-0.09
	c0.041-0.12,0.083-0.243,0.129-0.365c0.181-0.48,0.489-0.889,0.942-1.249c0.269-0.215,0.68-0.296,1.07-0.211
	c0.403,0.085,0.722,0.327,0.903,0.679c0.232,0.455,0.284,0.947,0.158,1.511c-0.142,0.635-0.447,1.235-0.932,1.835
	c-0.077,0.094-0.152,0.19-0.225,0.282c-0.024,0.029-0.046,0.058-0.069,0.086l7.116,4.971c0.024-0.108-0.018-0.198-0.063-0.292
	c-0.015-0.032-0.03-0.065-0.043-0.098l-0.101-0.274c-0.689-1.87-1.402-3.806-2.119-5.702c-0.282-0.744-0.575-1.498-0.859-2.228
	c-0.372-0.955-0.756-1.942-1.117-2.92c-0.285-0.771-0.549-1.564-0.803-2.332c-0.132-0.397-0.267-0.809-0.405-1.213
	c-0.12-0.347-0.248-0.697-0.372-1.036l-0.074-0.201c-0.085-0.234-0.093-0.395-0.023-0.51c0.07-0.117,0.217-0.187,0.464-0.222
	c0.118-0.016,0.234-0.02,0.334-0.02c0.682-0.004,1.363-0.01,2.046-0.015c1.935-0.014,3.937-0.029,5.906-0.034
	c0.926-0.002,1.87,0.022,2.781,0.045c0.172,0.004,0.343,0.009,0.514,0.013c0.106,0.002,0.213,0.007,0.317,0.014
	c0.188,0.011,0.381,0.02,0.583,0.013c-0.045-0.035-0.089-0.068-0.135-0.095c-0.851-0.496-1.647-1.053-2.364-1.658
	c-0.514-0.433-0.999-0.967-1.525-1.68c-0.079-0.108-0.135-0.2-0.173-0.289c-0.041-0.095-0.046-0.19-0.014-0.268
	c0.026-0.064,0.077-0.112,0.146-0.14c0.103-0.042,0.238-0.015,0.367,0.021c0.056,0.015,0.093,0.07,0.129,0.122
	c0.01,0.015,0.02,0.028,0.029,0.042c1.194,1.551,2.755,2.721,4.774,3.575c0.386,0.163,0.771,0.312,1.177,0.47
	c0.166,0.064,0.338,0.131,0.51,0.199c0.001-0.104,0.002-0.205,0.002-0.303c0.002-0.243,0.003-0.472-0.004-0.7l-0.019-0.523
	c-0.039-1.096-0.079-2.229-0.135-3.344c-0.045-0.89-0.106-1.793-0.165-2.668c-0.015-0.234-0.031-0.468-0.047-0.702
	c-0.038-0.579-0.081-1.17-0.122-1.739c-0.085-1.193-0.175-2.428-0.232-3.644c-0.048-0.992-0.055-2.003-0.061-2.981
	c-0.002-0.36-0.005-0.732-0.01-1.098c-0.007-0.485,0.046-0.622,0.54-0.75c0.671-0.173,1.399-0.33,2.294-0.493
	c1.508-0.275,3.164-0.422,5.211-0.462c1.736-0.035,3.295,0.075,4.766,0.335c0.847,0.15,1.707,0.321,2.536,0.486l0.212,0.042
	c0.118,0.023,0.235,0.059,0.348,0.093c0.094,0.028,0.191,0.059,0.287,0.081c0.27,0.062,0.415,0.228,0.429,0.492
	c0.002,0.027,0.003,0.053,0.005,0.08c0.007,0.083,0.012,0.169,0.006,0.255c-0.024,0.33-0.045,0.667-0.064,0.991
	c-0.05,0.781-0.099,1.587-0.192,2.377c-0.202,1.72-0.435,3.466-0.658,5.154c-0.072,0.542-0.145,1.082-0.216,1.624
	c-0.169,1.288-0.343,2.599-0.513,3.865c-0.116,0.874-0.233,1.749-0.349,2.623c-0.052,0.394-0.104,0.821-0.16,1.306
	c-0.007,0.058-0.005,0.117-0.003,0.192c0.001,0.025,0.002,0.052,0.002,0.081c0.028-0.005,0.055-0.009,0.082-0.013
	c0.084-0.014,0.157-0.025,0.229-0.046c2.032-0.595,3.94-1.485,5.673-2.646c0.052-0.034,0.103-0.07,0.154-0.105
	c0.094-0.065,0.192-0.132,0.291-0.194c0.367-0.228,0.552-0.117,0.641,0.015c0.055,0.081,0.076,0.172,0.057,0.26
	c-0.025,0.122-0.12,0.24-0.276,0.341c-0.163,0.104-0.326,0.212-0.483,0.317c-0.463,0.307-0.941,0.623-1.44,0.884
	c-0.655,0.343-1.34,0.653-2.004,0.951c-0.272,0.123-0.552,0.251-0.827,0.378c-0.012,0.006-0.024,0.011-0.037,0.016
	c-0.057,0.026-0.113,0.05-0.164,0.093l0.203,0.014c0.21,0.015,0.419,0.028,0.629,0.044c2.269,0.168,4.581,0.186,6.816,0.203
	c0.816,0.007,1.659,0.013,2.489,0.026c0.203,0.003,0.411,0,0.614-0.003c0.163-0.002,0.331-0.005,0.497-0.004
	c0.122,0.001,0.249,0.015,0.376,0.041c0.251,0.052,0.393,0.127,0.457,0.248c0.063,0.12,0.05,0.276-0.045,0.507
	c-0.047,0.114-0.094,0.228-0.141,0.342c-0.292,0.712-0.594,1.449-0.935,2.153c-1.152,2.379-2.333,4.794-3.474,7.128
	c-0.678,1.386-1.378,2.819-2.064,4.228c-0.358,0.734-0.712,1.484-1.055,2.211c-0.125,0.265-0.251,0.532-0.378,0.799
	c-0.005,0.011-0.007,0.026-0.01,0.047l6.037-4.914c-0.039-0.038-0.077-0.074-0.114-0.109c-0.098-0.092-0.183-0.172-0.257-0.263
	c-0.052-0.067-0.107-0.132-0.16-0.197c-0.212-0.26-0.431-0.531-0.609-0.82c-0.259-0.422-0.32-0.93-0.182-1.509
	c0.165-0.693,0.715-1.17,1.437-1.245c0.671-0.068,1.237,0.218,1.638,0.832c0.107,0.164,0.181,0.348,0.26,0.543
	c0.028,0.069,0.056,0.14,0.087,0.212c0.006-0.008,0.012-0.017,0.019-0.026c0.042-0.058,0.081-0.111,0.123-0.165
	c0.069-0.085,0.138-0.177,0.203-0.263c0.155-0.204,0.316-0.417,0.5-0.599c0.633-0.625,1.443-0.82,2.408-0.58
	c0.695,0.173,1.06,0.792,0.889,1.507c-0.085,0.355-0.187,0.531-0.666,1.111c0.753,0.123,1.54,0.394,1.802,1.375l0.002,0.005v0.426
	l-0.003,0.007c-0.389,0.95-1.214,1.09-2.107,1.139c0.013,0.024,0.026,0.047,0.039,0.069c0.045,0.079,0.083,0.146,0.123,0.213
	c0.241,0.408,0.3,0.861,0.178,1.345c-0.123,0.483-0.462,0.858-0.931,1.025c-0.483,0.172-1.021,0.088-1.442-0.225
	c-0.262-0.195-0.47-0.458-0.623-0.667c-0.14-0.19-0.259-0.398-0.385-0.617c-0.049-0.086-0.099-0.174-0.152-0.265
	c-0.028,0.024-0.057,0.045-0.086,0.067c-0.087,0.068-0.17,0.132-0.251,0.2c-2.96,2.445-5.79,4.966-8.169,7.111
	c-0.679,0.612-1.404,1.196-2.104,1.762c-0.235,0.19-0.479,0.386-0.717,0.581c-0.195,0.16-0.335,0.352-0.438,0.604l-0.271,0.665
	c-0.61,1.493-1.239,3.036-1.875,4.546c-1.04,2.473-2.104,4.985-3.132,7.414c-0.541,1.28-1.084,2.562-1.626,3.842
	c-0.078,0.187-0.16,0.378-0.241,0.56c-0.223,0.509-0.453,1.035-0.63,1.567c-0.129,0.391-0.162,0.823-0.194,1.24
	c-0.003,0.044-0.007,0.087-0.01,0.131c-0.08,1.02-0.153,2.058-0.222,3.063c-0.043,0.611-0.087,1.244-0.133,1.864l-0.047,0.64
	c-0.132,1.809-0.269,3.68-0.413,5.519c-0.182,2.325-0.234,4.258-0.164,6.083c0,0.002,0.003,0.011,0.007,0.019
	c0.001,0.002,0.002,0.004,0.002,0.007c0.034-0.01,0.068-0.02,0.103-0.031c0.101-0.029,0.205-0.06,0.303-0.099
	c1.034-0.413,2.024-0.597,3.03-0.563c1.176,0.04,2.238,0.38,3.156,1.013c1.007,0.693,1.475,1.732,1.355,3.003
	c-0.114,1.203-0.761,2.065-1.922,2.565c-1.321,0.569-2.753,0.721-4.258,0.457c-1.372-0.243-2.756-0.703-4.488-1.494
	c-0.313-0.143-0.606-0.321-0.916-0.51c-0.135-0.081-0.274-0.168-0.418-0.25c-0.011,0.005-0.022,0.011-0.034,0.018
	c-0.055,0.028-0.122,0.063-0.188,0.103c-1.537,0.932-3.155,1.616-4.804,2.036c-0.272,0.069-0.553,0.116-0.826,0.16
	c-0.141,0.023-0.286,0.048-0.429,0.074c-0.06,0.011-0.122,0.029-0.182,0.048c-0.028,0.008-0.057,0.017-0.085,0.025L36.767,91.273z
	 M35.777,91.187h0.979c0.027-0.007,0.053-0.014,0.079-0.022c0.061-0.019,0.125-0.037,0.191-0.05c0.142-0.027,0.289-0.05,0.431-0.074
	c0.27-0.045,0.55-0.091,0.819-0.16c1.642-0.418,3.252-1.099,4.782-2.027c0.068-0.042,0.138-0.077,0.193-0.105
	c0.02-0.01,0.039-0.02,0.054-0.028l0.021-0.011l0.019,0.011c0.152,0.086,0.299,0.177,0.44,0.263
	c0.308,0.187,0.598,0.365,0.907,0.505c1.725,0.788,3.103,1.247,4.468,1.487c1.488,0.262,2.905,0.111,4.21-0.451
	c1.131-0.488,1.76-1.327,1.872-2.496c0.118-1.24-0.339-2.251-1.319-2.925c-0.904-0.623-1.951-0.959-3.111-0.999
	c-0.995-0.033-1.975,0.149-2.997,0.558c-0.102,0.041-0.208,0.072-0.31,0.102c-0.047,0.014-0.094,0.028-0.141,0.042l-0.04,0.012
	l-0.013-0.039c-0.007-0.02-0.011-0.033-0.015-0.042c-0.007-0.019-0.011-0.031-0.011-0.046c-0.071-1.829-0.019-3.765,0.164-6.092
	c0.145-1.84,0.282-3.711,0.413-5.519l0.046-0.641c0.046-0.62,0.09-1.253,0.133-1.863c0.07-1.005,0.142-2.043,0.222-3.064
	c0.003-0.043,0.007-0.086,0.01-0.129c0.033-0.423,0.065-0.86,0.199-1.26c0.178-0.536,0.409-1.065,0.632-1.574
	c0.08-0.183,0.162-0.373,0.242-0.559c0.54-1.281,1.083-2.562,1.625-3.842c1.029-2.429,2.092-4.941,3.134-7.414
	c0.635-1.511,1.265-3.054,1.873-4.546l0.272-0.664c0.108-0.265,0.256-0.468,0.463-0.638c0.238-0.195,0.481-0.391,0.718-0.58
	c0.698-0.566,1.423-1.149,2.1-1.76c2.378-2.145,5.211-4.668,8.172-7.114c0.083-0.068,0.167-0.133,0.254-0.201
	c0.041-0.032,0.082-0.063,0.122-0.095l0.038-0.029l0.024,0.041c0.063,0.106,0.122,0.208,0.178,0.307
	c0.125,0.217,0.243,0.422,0.379,0.61c0.15,0.203,0.353,0.461,0.605,0.649c0.399,0.295,0.908,0.375,1.364,0.212
	c0.443-0.157,0.762-0.51,0.877-0.965c0.117-0.462,0.06-0.894-0.169-1.282c-0.039-0.067-0.078-0.135-0.123-0.215
	c-0.024-0.039-0.047-0.082-0.073-0.128l-0.034-0.059l0.068-0.003c0.889-0.046,1.717-0.164,2.1-1.083v-0.4
	c-0.26-0.96-1.059-1.205-1.807-1.318l-0.073-0.011l0.047-0.059c0.515-0.62,0.612-0.781,0.697-1.134
	c0.16-0.667-0.18-1.244-0.827-1.406c-0.934-0.232-1.717-0.044-2.328,0.559c-0.18,0.179-0.339,0.387-0.492,0.588
	c-0.067,0.089-0.135,0.179-0.205,0.267c-0.041,0.05-0.08,0.103-0.12,0.161c-0.02,0.028-0.041,0.056-0.063,0.085l-0.042,0.059
	l-0.03-0.066c-0.043-0.097-0.081-0.191-0.118-0.282c-0.076-0.191-0.149-0.37-0.252-0.528c-0.387-0.593-0.913-0.86-1.559-0.793
	c-0.684,0.071-1.207,0.523-1.363,1.18c-0.133,0.557-0.075,1.043,0.172,1.445c0.173,0.286,0.391,0.553,0.601,0.811
	c0.054,0.065,0.107,0.132,0.16,0.198c0.07,0.087,0.153,0.165,0.249,0.254c0.047,0.046,0.097,0.091,0.149,0.144l0.033,0.033
	l-6.274,5.107l0.015-0.107c0.005-0.033,0.007-0.057,0.01-0.079c0.004-0.04,0.007-0.068,0.019-0.096
	c0.127-0.267,0.253-0.534,0.378-0.8c0.343-0.726,0.698-1.476,1.055-2.211c0.687-1.41,1.387-2.843,2.065-4.228
	c1.141-2.335,2.321-4.749,3.474-7.128c0.34-0.701,0.641-1.437,0.933-2.148c0.047-0.115,0.094-0.228,0.141-0.343
	c0.083-0.203,0.099-0.341,0.049-0.435c-0.05-0.095-0.177-0.161-0.4-0.205c-0.122-0.025-0.243-0.038-0.359-0.039
	c-0.165-0.001-0.334,0.002-0.496,0.004c-0.203,0.003-0.411,0.007-0.616,0.003c-0.83-0.014-1.673-0.02-2.488-0.026
	c-2.237-0.018-4.551-0.035-6.822-0.203c-0.209-0.015-0.418-0.03-0.628-0.044c-0.098-0.007-0.196-0.014-0.295-0.021l-0.081-0.005
	l0.05-0.063c0.08-0.099,0.169-0.139,0.257-0.178c0.012-0.006,0.024-0.011,0.036-0.016c0.275-0.128,0.555-0.255,0.827-0.378
	c0.663-0.298,1.347-0.608,2-0.949c0.495-0.258,0.972-0.574,1.432-0.879c0.159-0.105,0.322-0.213,0.484-0.318
	c0.137-0.089,0.219-0.187,0.24-0.286c0.013-0.067-0.002-0.133-0.045-0.195c-0.102-0.151-0.274-0.148-0.527,0.008
	c-0.098,0.061-0.195,0.128-0.288,0.192c-0.051,0.036-0.103,0.072-0.155,0.107c-1.74,1.165-3.656,2.059-5.697,2.656
	c-0.077,0.023-0.156,0.034-0.239,0.048c-0.042,0.007-0.085,0.014-0.129,0.021l-0.05,0.01v-0.05c0-0.048-0.002-0.09-0.002-0.129
	c-0.002-0.074-0.003-0.139,0.004-0.204c0.056-0.484,0.109-0.912,0.161-1.307c0.116-0.874,0.233-1.748,0.348-2.623
	c0.169-1.266,0.343-2.577,0.514-3.864c0.071-0.542,0.143-1.082,0.215-1.625c0.224-1.687,0.456-3.432,0.658-5.153
	c0.092-0.785,0.143-1.592,0.192-2.371c0.02-0.325,0.04-0.662,0.064-0.992c0.006-0.08,0-0.163-0.005-0.243
	c-0.002-0.027-0.004-0.055-0.006-0.081c-0.012-0.23-0.128-0.361-0.363-0.415c-0.099-0.023-0.199-0.053-0.295-0.081
	c-0.11-0.034-0.225-0.069-0.339-0.091l-0.21-0.042c-0.83-0.165-1.689-0.336-2.535-0.487c-1.465-0.258-3.02-0.368-4.75-0.334
	c-2.042,0.041-3.694,0.187-5.198,0.461c-0.893,0.164-1.619,0.32-2.288,0.492c-0.448,0.116-0.483,0.207-0.479,0.667
	c0.006,0.366,0.007,0.738,0.011,1.098c0.007,0.977,0.013,1.987,0.06,2.977c0.059,1.214,0.147,2.449,0.234,3.642
	c0.041,0.57,0.083,1.159,0.122,1.739c0.015,0.234,0.031,0.468,0.047,0.702c0.059,0.875,0.12,1.778,0.165,2.67
	c0.055,1.114,0.096,2.247,0.135,3.344l0.018,0.524c0.008,0.23,0.007,0.459,0.004,0.703c-0.001,0.116-0.002,0.238-0.002,0.364v0.062
	l-0.057-0.023c-0.192-0.076-0.383-0.15-0.567-0.222c-0.407-0.158-0.793-0.307-1.18-0.47c-2.032-0.859-3.604-2.038-4.807-3.6
	c-0.011-0.015-0.021-0.03-0.033-0.046c-0.025-0.038-0.055-0.081-0.081-0.089c-0.116-0.033-0.234-0.057-0.314-0.025
	c-0.049,0.02-0.082,0.052-0.099,0.095c-0.024,0.056-0.019,0.129,0.013,0.201c0.036,0.083,0.089,0.171,0.164,0.273
	c0.522,0.708,1.003,1.237,1.512,1.666c0.714,0.601,1.504,1.155,2.351,1.649c0.059,0.033,0.111,0.075,0.163,0.116
	c0.023,0.019,0.046,0.037,0.07,0.055l0.09,0.067l-0.113,0.008c-0.247,0.019-0.479,0.006-0.705-0.006
	c-0.103-0.007-0.21-0.012-0.314-0.015c-0.171-0.004-0.343-0.009-0.513-0.013c-0.912-0.023-1.854-0.046-2.78-0.043
	c-1.969,0.004-3.97,0.019-5.906,0.033c-0.683,0.005-1.364,0.01-2.047,0.015c-0.096,0-0.209,0.003-0.321,0.02
	c-0.221,0.031-0.348,0.088-0.404,0.182c-0.056,0.093-0.046,0.231,0.029,0.437l0.074,0.201c0.125,0.34,0.254,0.691,0.373,1.039
	c0.137,0.404,0.273,0.816,0.405,1.213c0.254,0.768,0.516,1.56,0.801,2.329c0.361,0.978,0.746,1.965,1.118,2.919
	c0.283,0.729,0.577,1.483,0.859,2.227c0.716,1.898,1.429,3.833,2.119,5.704l0.101,0.275c0.011,0.029,0.025,0.059,0.04,0.091
	c0.054,0.115,0.116,0.244,0.049,0.41l-0.02,0.05l-2.352-1.643l-4.929-3.441l0.028-0.035c0.032-0.041,0.064-0.081,0.097-0.123
	c0.073-0.092,0.149-0.187,0.225-0.282c0.478-0.589,0.777-1.179,0.916-1.8c0.12-0.544,0.071-1.018-0.152-1.454
	c-0.168-0.33-0.468-0.555-0.845-0.636c-0.366-0.078-0.75-0.004-1,0.195c-0.44,0.349-0.741,0.747-0.916,1.212
	c-0.046,0.12-0.087,0.243-0.129,0.362c-0.018,0.055-0.037,0.108-0.055,0.162l-0.024,0.069l-0.048-0.056
	c-0.093-0.108-0.183-0.218-0.27-0.326c-0.195-0.242-0.381-0.469-0.597-0.669c-0.61-0.565-1.276-0.831-1.979-0.789
	c-0.558,0.033-0.986,0.339-1.236,0.887c-0.205,0.446-0.141,0.889,0.196,1.349c0.033,0.046,0.069,0.091,0.11,0.143
	c0.02,0.025,0.041,0.051,0.064,0.081l0.035,0.046l-0.055,0.02c-0.042,0.016-0.081,0.029-0.116,0.042
	c-0.068,0.024-0.129,0.046-0.185,0.071c-0.463,0.203-0.817,0.509-1.053,0.909c-0.28,0.475-0.209,1.036,0.181,1.427
	c0.242,0.243,0.521,0.394,0.833,0.45l0.61,0.109l-0.028,0.051c-0.019,0.034-0.038,0.065-0.055,0.094
	c-0.036,0.059-0.066,0.112-0.09,0.165c-0.036,0.082-0.073,0.164-0.111,0.243c-0.094,0.201-0.192,0.409-0.247,0.621
	c-0.107,0.41-0.046,0.815,0.175,1.137c0.208,0.304,0.53,0.496,0.909,0.54c0.523,0.062,0.957-0.014,1.33-0.23
	c0.55-0.319,1.104-0.703,1.438-1.339c0.028-0.051,0.061-0.096,0.096-0.143c0.017-0.022,0.034-0.046,0.051-0.069l0.017-0.025
	l0.03,0.008c0.035,0.011,0.07,0.02,0.103,0.03c0.077,0.02,0.151,0.04,0.221,0.071c0.087,0.039,0.165,0.096,0.241,0.15l0.011,0.008
	c0.369,0.266,0.737,0.533,1.104,0.8c0.676,0.491,1.375,0.997,2.066,1.49c0.58,0.413,1.17,0.832,1.743,1.236
	c0.894,0.631,1.819,1.285,2.72,1.94c0.829,0.602,1.653,1.238,2.451,1.855c0.178,0.137,0.356,0.275,0.534,0.413
	c0.081,0.062,0.149,0.166,0.208,0.317c0.384,0.98,0.776,1.977,1.154,2.941c1.008,2.563,2.051,5.215,3.045,7.834
	c1.037,2.731,2.057,5.519,3.044,8.216c0.33,0.9,0.671,1.83,1.007,2.745c0.058,0.158,0.087,0.343,0.084,0.535
	c-0.011,0.815-0.039,1.616-0.06,2.224c-0.047,1.283-0.094,2.565-0.142,3.847c-0.063,1.694-0.127,3.445-0.188,5.167
	c-0.057,1.577-0.107,3.18-0.158,4.729c-0.015,0.468-0.03,0.937-0.045,1.405c-0.004,0.128-0.006,0.258-0.008,0.384
	c-0.002,0.171-0.005,0.347-0.013,0.52c-0.003,0.065-0.024,0.129-0.048,0.196c-0.011,0.033-0.024,0.068-0.033,0.106l-0.013,0.043
	l-0.042-0.015c-0.116-0.042-0.228-0.087-0.337-0.132c-0.233-0.094-0.451-0.185-0.68-0.227c-1.142-0.216-2.372-0.398-3.63-0.273
	c-1.59,0.156-2.854,0.756-3.864,1.833c-0.644,0.687-0.861,1.522-0.647,2.481c0.23,1.029,0.86,1.814,1.874,2.331
	c0.44,0.225,0.929,0.375,1.403,0.52c0.146,0.045,0.298,0.092,0.444,0.139c0.175,0.057,0.361,0.09,0.542,0.123
	C35.61,91.156,35.694,91.172,35.777,91.187 M36.236,90.583c-1.018,0-2.004-0.267-2.941-0.798c-0.985-0.558-1.496-1.362-1.519-2.39
	c-0.012-0.559,0.177-1.047,0.562-1.45c0.857-0.899,1.931-1.439,3.196-1.607c1.013-0.135,2.035-0.078,3.039,0.167
	c0.649,0.16,1.302,0.34,1.935,0.516l0.13,0.037c0.17,0.047,0.3,0.039,0.386-0.025c0.084-0.062,0.129-0.18,0.133-0.348
	c0.007-0.308,0.007-0.622,0.008-0.925c0-0.372,0-0.756,0.015-1.134c0.046-1.225,0.098-2.47,0.148-3.675
	c0.046-1.115,0.094-2.269,0.138-3.403c0.084-2.188,0.139-3.876,0.182-5.474c0.024-0.889,0.038-1.795,0.052-2.669
	c0.008-0.596,0.018-1.213,0.031-1.819c0.006-0.286-0.045-0.531-0.159-0.772c-0.134-0.283-0.238-0.585-0.339-0.877
	c-0.036-0.105-0.072-0.213-0.111-0.32c-2.408-6.677-4.966-13.298-7.149-18.892c-1.025-2.626-2.025-5.312-2.992-7.91
	c-0.868-2.332-1.765-4.742-2.677-7.101c-1.092-2.823-2.123-5.684-3.005-8.144c-0.015-0.041-0.025-0.084-0.038-0.142
	c-0.008-0.033-0.018-0.072-0.029-0.12l-0.014-0.052h0.247h0.314c0.602-0.001,1.203-0.002,1.804-0.003
	c1.434-0.003,2.916-0.006,4.375-0.002c0.931,0.002,1.887,0.02,2.844,0.054c1.568,0.055,2.995,0.116,4.361,0.187
	c0.505,0.026,1.011,0.112,1.502,0.257c2.216,0.651,4.207,1.025,6.086,1.142c1.993,0.124,3.637,0.094,5.172-0.097
	c0.135-0.016,0.273-0.039,0.405-0.061c0.16-0.026,0.326-0.054,0.492-0.071c0.389-0.042,0.776-0.07,1.145-0.085
	c0.417-0.018,0.866-0.032,1.316-0.02c0.64,0.016,1.29,0.049,1.918,0.08l0.18,0.009c0.319,0.015,0.641,0.036,0.954,0.055
	c0.59,0.037,1.2,0.075,1.8,0.085c1.584,0.026,3.195,0.039,4.753,0.051c0.695,0.006,1.39,0.011,2.085,0.018
	c0.072,0.001,0.142,0.006,0.232,0.011c0.048,0.003,0.101,0.007,0.161,0.011l0.061,0.003l-0.024,0.055
	c-0.029,0.066-0.056,0.129-0.082,0.19c-0.053,0.123-0.103,0.238-0.157,0.352l-0.619,1.291c-0.695,1.45-1.415,2.949-2.127,4.421
	c-1.313,2.711-3.046,6.288-4.818,9.921c-0.228,0.466-0.476,0.933-0.717,1.384c-0.109,0.204-0.222,0.415-0.331,0.623
	c-0.011,0.02-0.023,0.041-0.035,0.062c-0.015,0.027-0.032,0.053-0.044,0.08c-0.056,0.12-0.124,0.339,0.061,0.464
	c0.155,0.107,0.285,0.045,0.429-0.08c0.131-0.115,0.264-0.231,0.396-0.347c0.327-0.287,0.665-0.584,1.008-0.864
	c0.863-0.704,1.743-1.415,2.593-2.105c0.682-0.551,1.386-1.122,2.079-1.683c0.558-0.454,1.116-0.926,1.655-1.383l0.02-0.015
	c0.136-0.116,0.203-0.228,0.197-0.335c-0.006-0.111-0.089-0.221-0.246-0.329c-0.422-0.289-0.778-0.643-1.053-1.051
	c-0.229-0.339-0.327-0.677-0.302-1.034c0.038-0.524,0.305-0.87,0.753-0.973c0.467-0.107,0.925,0.098,1.166,0.523
	c0.188,0.331,0.29,0.711,0.313,1.161c0.007,0.125,0.005,0.252,0.004,0.374c-0.002,0.094-0.002,0.19,0,0.286
	c0.007,0.247,0.088,0.374,0.248,0.39c0.164,0.016,0.265-0.061,0.348-0.266c0.028-0.068,0.056-0.138,0.083-0.207
	c0.098-0.249,0.2-0.505,0.339-0.737c0.272-0.453,0.536-0.828,0.807-1.144c0.396-0.465,0.965-0.636,1.695-0.512
	c0.247,0.041,0.431,0.156,0.516,0.323c0.085,0.164,0.072,0.365-0.033,0.582c-0.135,0.278-0.333,0.526-0.542,0.683
	c-0.326,0.243-0.685,0.454-1.03,0.659c-0.107,0.064-0.218,0.13-0.327,0.197c-0.068,0.041-0.142,0.074-0.213,0.107
	c-0.064,0.029-0.131,0.06-0.192,0.096c-0.197,0.116-0.267,0.265-0.199,0.418c0.068,0.151,0.237,0.198,0.443,0.123
	c0.123-0.046,0.247-0.098,0.368-0.148c0.116-0.048,0.236-0.098,0.356-0.143c0.439-0.163,0.88-0.23,1.311-0.201
	c0.391,0.028,0.698,0.142,0.933,0.35c0.202,0.177,0.297,0.368,0.276,0.55c-0.02,0.173-0.146,0.326-0.361,0.44
	c-0.207,0.109-0.461,0.185-0.714,0.214c-0.526,0.06-1.05,0-1.56-0.179c-0.131-0.046-0.259-0.09-0.387-0.105
	c-0.129-0.016-0.279,0.034-0.304,0.182c-0.017,0.098,0.039,0.237,0.103,0.33c0.029,0.043,0.087,0.072,0.148,0.103
	c0.038,0.02,0.078,0.04,0.114,0.065c0.074,0.053,0.148,0.105,0.224,0.158c0.215,0.149,0.436,0.304,0.639,0.476
	c0.26,0.221,0.391,0.523,0.379,0.872c-0.01,0.25-0.061,0.599-0.404,0.761c-0.348,0.164-0.696,0.135-0.979-0.081
	c-0.169-0.129-0.321-0.293-0.426-0.461c-0.217-0.353-0.409-0.707-0.57-1.051c-0.103-0.221-0.196-0.331-0.305-0.358
	c-0.105-0.026-0.238,0.024-0.421,0.161c-0.138,0.103-0.279,0.217-0.448,0.358c-3.005,2.512-5.447,4.63-7.684,6.667
	c-1.002,0.912-2.047,1.755-2.938,2.46c-0.549,0.435-0.948,0.979-1.254,1.711c-0.741,1.776-1.507,3.576-2.249,5.316
	c-0.568,1.336-1.156,2.718-1.73,4.081c-0.431,1.025-0.864,2.07-1.281,3.081c-0.654,1.581-1.329,3.217-2.02,4.814
	c-0.322,0.746-0.515,1.577-0.607,2.616c-0.116,1.302-0.209,2.629-0.3,3.912c-0.042,0.588-0.085,1.196-0.13,1.794
	c-0.042,0.562-0.086,1.132-0.13,1.684c-0.086,1.103-0.174,2.243-0.245,3.366c-0.081,1.281-0.133,2.587-0.184,3.849l-0.021,0.549
	c-0.027,0.628-0.029,1.266-0.033,1.885v0.048c-0.001,0.201,0.015,0.405,0.049,0.608c0.024,0.142,0.074,0.234,0.151,0.273
	c0.078,0.039,0.185,0.024,0.318-0.045c1.376-0.711,2.79-0.978,4.203-0.794c0.809,0.106,1.538,0.372,2.166,0.79
	c0.781,0.521,1.172,1.314,1.13,2.294c-0.042,0.991-0.53,1.706-1.454,2.123c-1.159,0.523-2.442,0.68-3.813,0.465
	c-1.514-0.238-3.031-0.746-4.638-1.555c-0.077-0.039-0.148-0.074-0.214-0.107c-0.781-0.39-0.797-0.397-0.752-1.012
	c0.008-0.117,0.018-0.261,0.024-0.435c0.065-1.941,0.164-3.824,0.294-5.595l0.037-0.51c0.186-2.51,0.376-5.106,0.492-7.665
	c0.069-1.518,0.163-3.059,0.254-4.551c0.043-0.706,0.088-1.434,0.129-2.15l0.001-0.021c0.007-0.112,0.014-0.23-0.004-0.339
	c-0.022-0.134-0.112-0.216-0.241-0.221c-0.131-0.004-0.221,0.07-0.247,0.206c-0.023,0.115-0.039,0.237-0.046,0.361
	c-0.026,0.405-0.051,0.81-0.077,1.216c-0.095,1.473-0.192,2.997-0.282,4.496c-0.048,0.802-0.093,1.619-0.137,2.408
	c-0.06,1.097-0.123,2.233-0.195,3.348c-0.036,0.556-0.088,1.12-0.137,1.665c-0.044,0.475-0.089,0.969-0.123,1.454
	c-0.078,1.123-0.151,2.346-0.222,3.738c-0.039,0.766-0.067,1.578-0.09,2.634c-0.005,0.199-0.08,0.329-0.25,0.434
	c-1.966,1.208-3.835,1.951-5.715,2.273C36.917,90.553,36.574,90.583,36.236,90.583 M36.611,84.351c-0.356,0-0.711,0.024-1.065,0.071
	c-1.244,0.165-2.303,0.698-3.146,1.581c-0.37,0.387-0.551,0.855-0.539,1.391c0.021,0.995,0.518,1.775,1.476,2.318
	c1.231,0.697,2.547,0.932,3.912,0.698c1.87-0.319,3.729-1.06,5.685-2.261c0.147-0.09,0.206-0.192,0.21-0.364
	c0.023-1.057,0.051-1.87,0.09-2.635c0.072-1.393,0.144-2.618,0.223-3.742c0.034-0.486,0.079-0.978,0.122-1.454
	c0.05-0.545,0.101-1.109,0.137-1.664c0.072-1.115,0.134-2.25,0.195-3.347c0.044-0.789,0.09-1.607,0.137-2.408
	c0.09-1.5,0.187-3.024,0.282-4.497c0.026-0.405,0.052-0.811,0.078-1.216c0.008-0.128,0.024-0.253,0.047-0.373
	c0.035-0.177,0.16-0.28,0.334-0.273c0.169,0.007,0.292,0.119,0.321,0.293c0.02,0.117,0.013,0.24,0.006,0.358l-0.002,0.02
	c-0.041,0.716-0.085,1.445-0.129,2.15c-0.091,1.491-0.185,3.033-0.254,4.55c-0.116,2.559-0.307,5.156-0.492,7.667l-0.037,0.51
	c-0.13,1.77-0.229,3.651-0.294,5.592c-0.007,0.175-0.017,0.321-0.025,0.438c-0.02,0.282-0.031,0.424,0.051,0.533
	c0.085,0.114,0.276,0.208,0.654,0.397c0.067,0.033,0.138,0.068,0.215,0.107c1.599,0.806,3.108,1.31,4.613,1.546
	c1.355,0.212,2.622,0.058,3.765-0.458c0.893-0.402,1.364-1.092,1.404-2.049c0.041-0.949-0.338-1.716-1.091-2.22
	c-0.618-0.412-1.335-0.672-2.131-0.776c-1.396-0.182-2.793,0.082-4.153,0.785c-0.159,0.082-0.291,0.098-0.396,0.045
	c-0.102-0.05-0.168-0.163-0.196-0.334c-0.034-0.208-0.052-0.417-0.05-0.622V84.66c0.003-0.619,0.007-1.258,0.032-1.887l0.022-0.55
	c0.051-1.263,0.103-2.568,0.184-3.851c0.071-1.123,0.16-2.264,0.246-3.367c0.044-0.553,0.088-1.122,0.13-1.684
	c0.045-0.597,0.087-1.205,0.129-1.794c0.09-1.283,0.185-2.61,0.3-3.912c0.094-1.048,0.288-1.887,0.613-2.642
	c0.691-1.596,1.367-3.232,2.02-4.813c0.418-1.011,0.851-2.057,1.282-3.082c0.573-1.362,1.161-2.744,1.73-4.081
	c0.741-1.739,1.507-3.54,2.248-5.315c0.312-0.746,0.719-1.301,1.281-1.745c0.889-0.704,1.933-1.546,2.933-2.456
	c2.238-2.038,4.68-4.157,7.686-6.668c0.169-0.142,0.313-0.258,0.453-0.362c0.207-0.155,0.357-0.208,0.491-0.175
	c0.135,0.033,0.247,0.158,0.361,0.404c0.16,0.342,0.35,0.692,0.566,1.042c0.098,0.16,0.243,0.317,0.404,0.439
	c0.258,0.196,0.575,0.222,0.893,0.072c0.233-0.109,0.343-0.321,0.356-0.688c0.012-0.322-0.108-0.601-0.349-0.805
	c-0.199-0.169-0.42-0.323-0.633-0.471c-0.074-0.053-0.15-0.105-0.225-0.159c-0.03-0.021-0.065-0.039-0.103-0.059
	c-0.068-0.034-0.138-0.069-0.18-0.131c-0.071-0.104-0.138-0.262-0.116-0.391c0.03-0.173,0.194-0.277,0.398-0.251
	c0.138,0.017,0.269,0.061,0.404,0.109c0.498,0.176,1.01,0.235,1.523,0.176c0.243-0.028,0.487-0.101,0.684-0.206l0.02,0.037
	l-0.02-0.037c0.19-0.1,0.3-0.23,0.318-0.374c0.018-0.155-0.068-0.32-0.248-0.479c-0.225-0.197-0.505-0.302-0.884-0.328
	c-0.419-0.029-0.848,0.037-1.275,0.195c-0.119,0.044-0.238,0.094-0.353,0.142c-0.12,0.05-0.247,0.103-0.372,0.148
	c-0.247,0.092-0.462,0.026-0.549-0.167c-0.087-0.195-0.002-0.387,0.233-0.525c0.065-0.038,0.134-0.07,0.201-0.1
	c0.068-0.031,0.139-0.064,0.203-0.103c0.109-0.066,0.221-0.133,0.328-0.197c0.343-0.204,0.699-0.414,1.022-0.654
	c0.199-0.149,0.387-0.387,0.517-0.653c0.094-0.192,0.105-0.366,0.033-0.505c-0.074-0.146-0.231-0.242-0.453-0.28
	c-0.709-0.12-1.237,0.038-1.618,0.484c-0.268,0.313-0.528,0.684-0.798,1.133c-0.135,0.225-0.236,0.479-0.333,0.725
	c-0.028,0.069-0.055,0.138-0.084,0.207c-0.066,0.161-0.176,0.343-0.435,0.319c-0.208-0.021-0.317-0.179-0.323-0.473
	c-0.003-0.096-0.002-0.194-0.001-0.288c0.002-0.121,0.002-0.247-0.003-0.37c-0.023-0.436-0.122-0.804-0.303-1.124
	c-0.223-0.391-0.644-0.581-1.074-0.482c-0.409,0.094-0.652,0.411-0.687,0.897c-0.025,0.337,0.07,0.657,0.287,0.98
	c0.269,0.399,0.616,0.746,1.031,1.029c0.18,0.123,0.275,0.255,0.282,0.394c0.007,0.134-0.07,0.27-0.227,0.404l-0.018,0.016
	c-0.54,0.456-1.1,0.929-1.658,1.383c-0.691,0.562-1.395,1.132-2.077,1.683c-0.851,0.689-1.73,1.401-2.594,2.104
	c-0.341,0.28-0.679,0.576-1.005,0.864c-0.132,0.116-0.264,0.232-0.396,0.346c-0.143,0.125-0.319,0.233-0.532,0.087
	c-0.173-0.118-0.205-0.326-0.09-0.569c0.015-0.032,0.032-0.06,0.048-0.088c0.011-0.019,0.023-0.039,0.033-0.059
	c0.108-0.208,0.221-0.419,0.331-0.623c0.24-0.45,0.488-0.916,0.716-1.382c1.771-3.632,3.505-7.21,4.818-9.92
	c0.713-1.472,1.431-2.972,2.126-4.42l0.62-1.292c0.053-0.111,0.103-0.226,0.155-0.348c0.018-0.044,0.038-0.09,0.058-0.135
	c-0.037-0.002-0.07-0.005-0.102-0.007c-0.088-0.006-0.158-0.011-0.228-0.011c-0.695-0.007-1.389-0.013-2.084-0.018
	c-1.558-0.012-3.169-0.025-4.753-0.052c-0.603-0.01-1.213-0.047-1.804-0.084c-0.313-0.02-0.635-0.04-0.953-0.056l-0.18-0.008
	c-0.628-0.032-1.278-0.064-1.916-0.08c-0.448-0.012-0.895,0.002-1.311,0.02c-0.369,0.015-0.752,0.044-1.14,0.085
	c-0.163,0.017-0.327,0.044-0.487,0.071c-0.133,0.022-0.271,0.044-0.409,0.062c-1.54,0.19-3.189,0.221-5.188,0.096
	c-1.885-0.117-3.881-0.492-6.103-1.144c-0.486-0.143-0.985-0.229-1.484-0.255c-1.365-0.071-2.791-0.132-4.359-0.186
	c-0.956-0.033-1.91-0.052-2.841-0.055c-1.459-0.003-2.941-0.002-4.374,0.002c-0.601,0.001-1.202,0.002-1.804,0.003h-0.315h-0.138
	c0.007,0.026,0.011,0.049,0.016,0.068c0.014,0.059,0.023,0.097,0.036,0.133c0.881,2.46,1.913,5.32,3.005,8.141
	c0.912,2.36,1.809,4.769,2.678,7.102c0.966,2.596,1.966,5.283,2.99,7.909c2.185,5.594,4.742,12.215,7.15,18.893
	c0.039,0.107,0.077,0.216,0.113,0.321c0.099,0.291,0.203,0.59,0.335,0.868c0.12,0.253,0.173,0.51,0.166,0.81
	c-0.012,0.606-0.021,1.223-0.031,1.819c-0.013,0.874-0.027,1.78-0.05,2.67c-0.043,1.599-0.099,3.287-0.183,5.475
	c-0.044,1.134-0.091,2.288-0.138,3.404c-0.05,1.204-0.102,2.449-0.148,3.674c-0.014,0.376-0.014,0.759-0.014,1.131
	c-0.001,0.304-0.001,0.618-0.009,0.927c-0.005,0.196-0.061,0.336-0.167,0.414c-0.109,0.08-0.262,0.093-0.458,0.039l-0.131-0.036
	c-0.632-0.176-1.285-0.358-1.933-0.516C37.911,84.43,37.262,84.351,36.611,84.351 M32.231,42.132l-0.068-0.052
	c-0.085-0.065-0.167-0.128-0.248-0.19c-0.169-0.131-0.33-0.254-0.494-0.373c-0.641-0.467-1.284-0.934-1.927-1.399
	c-0.833-0.603-1.694-1.227-2.539-1.842c-0.312-0.228-0.625-0.461-0.929-0.686c-0.433-0.323-0.88-0.656-1.327-0.973
	c-0.453-0.323-0.922-0.642-1.375-0.95c-0.284-0.193-0.576-0.392-0.863-0.591c-0.28-0.194-0.573-0.407-0.894-0.651
	c-0.109-0.081-0.21-0.114-0.301-0.097c-0.086,0.016-0.162,0.077-0.225,0.182c-0.042,0.07-0.077,0.147-0.11,0.223
	c-0.01,0.023-0.02,0.046-0.031,0.068c-0.257,0.569-0.668,1.011-1.259,1.352c-0.317,0.183-0.632,0.26-0.966,0.238
	c-0.275-0.019-0.49-0.12-0.62-0.295c-0.126-0.168-0.164-0.394-0.109-0.65c0.136-0.623,0.491-1.092,1.055-1.395
	c0.151-0.081,0.309-0.15,0.464-0.217c0.081-0.035,0.166-0.072,0.247-0.11c0.029-0.013,0.059-0.024,0.088-0.036
	c0.072-0.027,0.146-0.055,0.18-0.103c0.067-0.096,0.103-0.232,0.094-0.339c-0.014-0.134-0.146-0.173-0.267-0.164
	c-0.077,0.006-0.154,0.028-0.234,0.053c-0.026,0.008-0.05,0.015-0.075,0.023c-0.125,0.035-0.25,0.07-0.374,0.107
	c-0.214,0.063-0.435,0.127-0.656,0.186c-0.354,0.094-0.746,0.068-1.199-0.079c-0.273-0.088-0.457-0.256-0.517-0.474
	c-0.062-0.221,0.009-0.466,0.203-0.689c0.401-0.461,0.888-0.625,1.444-0.485c0.289,0.072,0.577,0.16,0.856,0.245
	c0.133,0.04,0.273,0.082,0.409,0.122c0.038,0.011,0.077,0.023,0.114,0.035c0.103,0.032,0.21,0.065,0.316,0.081
	c0.099,0.014,0.276,0.007,0.346-0.199c0.05-0.146-0.007-0.258-0.177-0.35c-0.045-0.024-0.094-0.043-0.146-0.063
	c-0.026-0.01-0.051-0.02-0.077-0.029c-0.11-0.046-0.222-0.09-0.33-0.133c-0.257-0.101-0.522-0.205-0.772-0.329
	c-0.302-0.147-0.574-0.317-0.807-0.501c-0.336-0.266-0.432-0.575-0.283-0.916c0.158-0.365,0.513-0.575,0.904-0.531
	c0.529,0.058,1.005,0.282,1.415,0.665c0.463,0.436,0.753,0.98,1.033,1.544c0.017,0.036,0.033,0.073,0.049,0.11
	c0.023,0.053,0.044,0.102,0.071,0.15c0.077,0.136,0.19,0.19,0.334,0.162c0.138-0.026,0.21-0.115,0.236-0.286
	c0.013-0.086,0.025-0.172,0.037-0.258c0.038-0.263,0.077-0.535,0.137-0.798c0.132-0.59,0.387-1.017,0.776-1.306
	c0.206-0.152,0.431-0.206,0.632-0.15c0.203,0.055,0.368,0.217,0.467,0.454c0.112,0.271,0.129,0.575,0.049,0.955
	c-0.111,0.527-0.35,1.026-0.733,1.526c-0.066,0.085-0.135,0.172-0.203,0.255c-0.085,0.106-0.174,0.216-0.256,0.326
	c-0.208,0.282-0.19,0.413,0.088,0.64c0.023,0.018,0.046,0.035,0.072,0.051c0.009,0.007,0.018,0.012,0.027,0.019
	c0.58,0.408,1.161,0.816,1.741,1.224c1.461,1.028,2.972,2.089,4.456,3.135c0.534,0.377,1.113,0.794,1.771,1.279
	c0.069,0.05,0.192,0.155,0.245,0.29c0.317,0.82,0.63,1.656,0.933,2.466l0.099,0.265c0.011,0.03,0.01,0.062,0.007,0.101
	c-0.002,0.021-0.002,0.044-0.002,0.072V42.132z M21.316,34.24c0.097,0,0.199,0.039,0.303,0.119c0.321,0.243,0.613,0.456,0.892,0.649
	c0.285,0.199,0.579,0.397,0.862,0.591c0.453,0.307,0.921,0.626,1.376,0.951c0.448,0.317,0.894,0.65,1.328,0.973
	c0.304,0.226,0.616,0.46,0.928,0.686c0.845,0.615,1.706,1.239,2.538,1.842c0.642,0.466,1.285,0.932,1.927,1.399
	c0.166,0.12,0.326,0.243,0.496,0.374c0.06,0.046,0.12,0.093,0.183,0.141c0.002-0.028,0.002-0.048-0.002-0.06l-0.099-0.265
	c-0.303-0.81-0.615-1.647-0.933-2.466c-0.033-0.083-0.112-0.176-0.217-0.252c-0.657-0.484-1.235-0.902-1.769-1.278
	c-1.485-1.047-2.995-2.109-4.457-3.136c-0.58-0.407-1.161-0.816-1.741-1.224c-0.008-0.006-0.017-0.012-0.026-0.018
	c-0.025-0.017-0.051-0.036-0.077-0.055c-0.311-0.253-0.337-0.437-0.102-0.755c0.082-0.111,0.171-0.222,0.258-0.329
	c0.067-0.083,0.136-0.168,0.201-0.253c0.374-0.489,0.61-0.978,0.718-1.491c0.077-0.363,0.063-0.651-0.045-0.906
	c-0.089-0.212-0.235-0.356-0.412-0.405c-0.176-0.048-0.374,0-0.558,0.136c-0.379,0.281-0.616,0.68-0.746,1.257
	c-0.059,0.26-0.097,0.531-0.135,0.793c-0.012,0.086-0.025,0.173-0.037,0.258c-0.032,0.207-0.13,0.324-0.304,0.356
	c-0.178,0.035-0.33-0.037-0.423-0.203c-0.029-0.051-0.052-0.105-0.076-0.158c-0.015-0.035-0.03-0.072-0.047-0.106
	c-0.275-0.558-0.561-1.093-1.014-1.52c-0.396-0.37-0.855-0.586-1.366-0.643c-0.353-0.038-0.676,0.151-0.819,0.482
	c-0.133,0.307-0.048,0.574,0.26,0.817c0.229,0.181,0.496,0.347,0.791,0.492c0.248,0.122,0.511,0.226,0.767,0.326
	c0.108,0.043,0.221,0.087,0.332,0.133c0.024,0.01,0.05,0.019,0.075,0.028c0.052,0.019,0.106,0.04,0.157,0.067
	c0.257,0.141,0.26,0.324,0.217,0.453c-0.065,0.19-0.228,0.285-0.438,0.254c-0.113-0.016-0.223-0.05-0.33-0.084
	c-0.037-0.012-0.075-0.024-0.111-0.034c-0.138-0.04-0.276-0.083-0.41-0.124c-0.278-0.084-0.566-0.172-0.851-0.243
	c-0.524-0.131-0.982,0.024-1.36,0.459c-0.175,0.2-0.24,0.418-0.187,0.611c0.053,0.189,0.217,0.336,0.463,0.416
	c0.444,0.143,0.808,0.168,1.152,0.076c0.218-0.058,0.44-0.122,0.654-0.183c0.125-0.037,0.249-0.073,0.374-0.108
	c0.025-0.007,0.049-0.015,0.073-0.021c0.082-0.026,0.166-0.051,0.254-0.058c0.201-0.014,0.341,0.081,0.356,0.241
	c0.013,0.125-0.031,0.284-0.108,0.396c-0.046,0.068-0.134,0.102-0.218,0.133c-0.028,0.011-0.056,0.022-0.082,0.033
	c-0.082,0.038-0.168,0.075-0.25,0.111c-0.153,0.066-0.31,0.134-0.457,0.213c-0.542,0.29-0.883,0.741-1.012,1.34
	c-0.05,0.231-0.018,0.433,0.094,0.581c0.116,0.154,0.308,0.243,0.558,0.261c0.317,0.021,0.617-0.053,0.919-0.227
	c0.575-0.332,0.974-0.76,1.225-1.313c0.01-0.023,0.02-0.046,0.03-0.068c0.034-0.078,0.069-0.159,0.114-0.233
	c0.077-0.125,0.172-0.199,0.282-0.221C21.273,34.242,21.295,34.24,21.316,34.24 M49.169,22.382c-2.858,0-6.185-0.409-8.006-1.119
	l-0.026-0.011l-0.001-0.027c-0.007-0.173-0.015-0.349-0.022-0.526c-0.017-0.399-0.034-0.811-0.05-1.219
	c-0.015-0.407-0.03-0.812-0.045-1.242c-0.007-0.191-0.013-0.387-0.02-0.588l-0.002-0.061l0.059,0.02
	c3.996,1.345,8.147,1.515,12.69,0.524l0.056-0.013l-0.004,0.058c-0.05,0.63-0.133,1.264-0.215,1.877
	c-0.08,0.6-0.161,1.22-0.211,1.838l-0.002,0.028l-0.027,0.009C52.387,22.239,50.859,22.382,49.169,22.382 M41.219,21.195
	c1.352,0.521,3.65,0.914,6.157,1.052c2.505,0.136,4.711-0.008,5.912-0.389c0.05-0.61,0.13-1.222,0.209-1.813
	c0.078-0.594,0.16-1.208,0.208-1.817c-4.514,0.976-8.645,0.807-12.622-0.519c0.007,0.18,0.012,0.356,0.019,0.527
	c0.015,0.429,0.028,0.834,0.045,1.24c0.015,0.409,0.033,0.82,0.05,1.219C41.204,20.864,41.212,21.03,41.219,21.195 M48.152,18.167
	c-0.446,0-0.899-0.011-1.362-0.033c-1.95-0.091-3.816-0.545-5.224-0.928c-0.059-0.016-0.119-0.036-0.176-0.054
	c-0.046-0.015-0.093-0.029-0.14-0.043c-0.194-0.055-0.288-0.174-0.286-0.361c0.001-0.107-0.008-0.218-0.018-0.325
	c-0.005-0.054-0.01-0.109-0.013-0.165c-0.025-0.412-0.05-0.824-0.076-1.235c-0.054-0.862-0.109-1.752-0.168-2.627
	c-0.032-0.469-0.068-0.944-0.103-1.405c-0.06-0.805-0.123-1.638-0.163-2.457c-0.057-1.172-0.094-2.364-0.13-3.518
	c-0.014-0.466-0.028-0.948-0.046-1.422c-0.002-0.09-0.002-0.181-0.001-0.286c0.001-0.053,0.001-0.109,0.001-0.173V3.102l0.034-0.006
	c2.745-0.565,5.255-0.842,7.674-0.847h0.076c2.659,0,5.141,0.327,7.582,0.999l0.033,0.01l-0.002,0.034
	c-0.278,3.754-0.8,7.502-1.306,11.125c-0.138,0.986-0.279,2.003-0.415,3.01l-0.003,0.029l-0.028,0.007
	c-0.137,0.032-0.277,0.066-0.411,0.099c-0.294,0.072-0.597,0.147-0.901,0.205C51.167,18.034,49.707,18.167,48.152,18.167
	 M40.332,3.592c0.017,0.475,0.031,0.956,0.046,1.422c0.036,1.153,0.072,2.346,0.129,3.517c0.04,0.818,0.103,1.651,0.163,2.455
	c0.035,0.461,0.071,0.937,0.103,1.406c0.058,0.876,0.113,1.765,0.166,2.627c0.025,0.411,0.051,0.824,0.077,1.235
	c0.003,0.055,0.008,0.11,0.012,0.164c0.01,0.108,0.02,0.221,0.019,0.332c-0.001,0.15,0.067,0.234,0.225,0.28
	c0.048,0.013,0.095,0.029,0.142,0.043c0.056,0.019,0.116,0.037,0.173,0.053c2.674,0.728,4.186,0.877,5.207,0.925
	c2.071,0.098,3.96-0.023,5.771-0.366c0.3-0.057,0.603-0.132,0.896-0.203c0.126-0.031,0.256-0.063,0.383-0.094
	c0.134-0.997,0.276-2.006,0.411-2.982c0.505-3.611,1.026-7.345,1.304-11.085c-2.424-0.663-4.888-0.987-7.527-0.987h-0.076
	c-2.403,0.006-4.897,0.281-7.624,0.838c-0.001,0.05-0.001,0.096-0.001,0.139C40.33,3.413,40.33,3.504,40.332,3.592"/>
<path class="st3" d="M71.512,33.431c0.518-0.628,0.619-0.794,0.705-1.152c0.164-0.684-0.173-1.286-0.858-1.456
	c-0.879-0.22-1.7-0.091-2.367,0.568c-0.261,0.258-0.47,0.571-0.702,0.86c-0.061,0.076-0.117,0.156-0.184,0.247
	c-0.132-0.296-0.216-0.58-0.373-0.816c-0.372-0.567-0.903-0.883-1.599-0.811c-0.71,0.074-1.24,0.54-1.399,1.213
	c-0.122,0.509-0.101,1.023,0.176,1.477c0.22,0.358,0.502,0.682,0.767,1.013c0.107,0.133,0.242,0.244,0.4,0.4
	c-2.067,1.683-4.092,3.332-6.154,5.009c0.013-0.089,0.01-0.131,0.025-0.164c0.476-1.004,0.945-2.01,1.432-3.01
	c1.845-3.785,3.702-7.566,5.538-11.356c0.396-0.813,0.731-1.655,1.075-2.493c0.177-0.429,0.068-0.605-0.38-0.698
	c-0.121-0.024-0.246-0.038-0.369-0.039c-0.371-0.002-0.742,0.013-1.113,0.007c-3.102-0.05-6.208,0-9.306-0.229
	c-0.308-0.022-0.616-0.043-0.924-0.064c0.085-0.105,0.182-0.139,0.277-0.183c0.946-0.438,1.907-0.846,2.83-1.327
	c0.666-0.348,1.285-0.79,1.918-1.2c0.26-0.168,0.325-0.368,0.208-0.541c-0.115-0.169-0.308-0.173-0.584-0.003
	c-0.151,0.094-0.296,0.199-0.444,0.3c-1.757,1.178-3.655,2.057-5.684,2.65c-0.111,0.032-0.227,0.043-0.365,0.068
	c0-0.14-0.01-0.234,0.002-0.326c0.05-0.436,0.103-0.873,0.161-1.308c0.286-2.163,0.577-4.325,0.86-6.488
	c0.298-2.259,0.609-4.515,0.876-6.777c0.13-1.116,0.174-2.243,0.255-3.366c0.008-0.108-0.004-0.219-0.011-0.328
	c-0.013-0.255-0.147-0.399-0.396-0.455c-0.213-0.049-0.42-0.131-0.635-0.173c-0.914-0.182-1.827-0.365-2.746-0.527
	c-1.573-0.279-3.163-0.367-4.759-0.335c-1.744,0.034-3.484,0.148-5.203,0.462c-0.769,0.141-1.535,0.297-2.291,0.492
	c-0.468,0.12-0.515,0.23-0.51,0.711c0.017,1.358,0.006,2.718,0.071,4.074c0.087,1.796,0.236,3.589,0.356,5.383
	c0.075,1.123,0.155,2.246,0.212,3.37c0.063,1.289,0.106,2.579,0.152,3.868c0.012,0.338,0.002,0.676,0.002,1.065
	c-0.602-0.238-1.179-0.453-1.744-0.692c-1.893-0.801-3.527-1.946-4.791-3.587c-0.042-0.055-0.081-0.133-0.136-0.149
	c-0.11-0.03-0.245-0.061-0.342-0.023c-0.144,0.058-0.171,0.208-0.109,0.35c0.044,0.1,0.104,0.195,0.169,0.282
	c0.45,0.609,0.937,1.183,1.519,1.673c0.738,0.62,1.526,1.168,2.359,1.652c0.081,0.047,0.152,0.112,0.228,0.168
	c-0.359,0.027-0.687-0.013-1.014-0.02c-1.1-0.027-2.198-0.06-3.296-0.057c-2.65,0.006-5.3,0.03-7.951,0.048
	c-0.11,0.001-0.221,0.005-0.329,0.02c-0.456,0.064-0.564,0.249-0.407,0.676c0.15,0.412,0.304,0.824,0.445,1.24
	c0.404,1.181,0.776,2.373,1.208,3.543c0.637,1.723,1.326,3.428,1.976,5.146c0.75,1.989,1.485,3.984,2.22,5.978
	c0.051,0.139,0.166,0.279,0.09,0.472c-2.403-1.678-4.787-3.343-7.201-5.028c0.102-0.129,0.21-0.268,0.32-0.404
	c0.439-0.54,0.774-1.135,0.926-1.818c0.112-0.509,0.089-1.003-0.155-1.481c-0.391-0.764-1.401-0.859-1.909-0.455
	c-0.422,0.335-0.74,0.73-0.93,1.231c-0.066,0.176-0.125,0.352-0.184,0.523c-0.295-0.343-0.552-0.703-0.87-0.998
	c-0.56-0.518-1.223-0.846-2.01-0.8c-0.602,0.035-1.026,0.371-1.272,0.912c-0.228,0.498-0.112,0.964,0.199,1.393
	c0.052,0.07,0.107,0.138,0.175,0.225c-0.125,0.046-0.216,0.076-0.303,0.112c-0.453,0.199-0.821,0.5-1.073,0.928
	c-0.29,0.492-0.215,1.073,0.186,1.478c0.238,0.238,0.521,0.401,0.857,0.461c0.174,0.032,0.349,0.063,0.55,0.098
	c-0.057,0.102-0.11,0.18-0.147,0.264c-0.125,0.289-0.282,0.569-0.36,0.871c-0.224,0.849,0.286,1.632,1.12,1.73
	c0.469,0.055,0.929,0.011,1.354-0.236c0.589-0.342,1.13-0.733,1.455-1.356c0.037-0.07,0.091-0.133,0.144-0.208
	c0.115,0.035,0.223,0.056,0.321,0.099c0.087,0.038,0.166,0.097,0.243,0.152c1.057,0.763,2.11,1.533,3.17,2.291
	c1.487,1.061,2.987,2.102,4.464,3.175c1.011,0.734,1.995,1.504,2.985,2.268c0.089,0.069,0.151,0.189,0.195,0.299
	c1.404,3.589,2.829,7.171,4.197,10.774c1.382,3.642,2.707,7.306,4.052,10.961c0.059,0.162,0.085,0.347,0.081,0.52
	c-0.011,0.741-0.034,1.482-0.06,2.223c-0.109,3.005-0.224,6.01-0.33,9.015c-0.072,2.045-0.136,4.087-0.203,6.133
	c-0.01,0.3-0.007,0.602-0.021,0.903c-0.004,0.09-0.047,0.177-0.08,0.293c-0.359-0.13-0.682-0.297-1.025-0.362
	c-1.202-0.226-2.41-0.395-3.642-0.273c-1.52,0.151-2.836,0.724-3.89,1.848c-0.671,0.716-0.868,1.572-0.658,2.518
	c0.245,1.094,0.932,1.866,1.897,2.359c0.58,0.296,1.229,0.459,1.854,0.663c0.257,0.084,0.531,0.116,0.798,0.17h0.989
	c0.09-0.024,0.18-0.056,0.272-0.073c0.418-0.079,0.842-0.13,1.252-0.234c1.7-0.433,3.293-1.122,4.794-2.032
	c0.092-0.055,0.19-0.103,0.244-0.133c0.473,0.273,0.893,0.562,1.352,0.771c1.437,0.657,2.911,1.214,4.476,1.49
	c1.454,0.256,2.87,0.133,4.236-0.455c1.118-0.481,1.78-1.312,1.896-2.53c0.116-1.231-0.322-2.266-1.338-2.965
	c-0.928-0.639-1.992-0.965-3.134-1.004c-1.046-0.035-2.045,0.174-3.013,0.559c-0.146,0.059-0.3,0.097-0.448,0.144
	c-0.016-0.05-0.024-0.063-0.024-0.076c-0.077-2.033,0.006-4.061,0.164-6.088c0.161-2.053,0.309-4.105,0.46-6.159
	c0.12-1.642,0.227-3.286,0.356-4.928c0.036-0.462,0.062-0.944,0.206-1.378c0.242-0.728,0.572-1.424,0.872-2.131
	c1.586-3.753,3.178-7.501,4.758-11.255c0.728-1.733,1.436-3.473,2.145-5.212c0.102-0.249,0.242-0.45,0.451-0.621
	c0.946-0.773,1.912-1.524,2.819-2.342c2.683-2.418,5.386-4.812,8.171-7.112c0.122-0.1,0.248-0.195,0.375-0.295
	c0.202,0.335,0.359,0.644,0.561,0.918c0.177,0.241,0.377,0.481,0.615,0.657c0.855,0.636,2.053,0.23,2.307-0.776
	c0.113-0.453,0.069-0.899-0.174-1.314c-0.059-0.1-0.116-0.202-0.197-0.342c0.919-0.047,1.752-0.175,2.139-1.117v-0.412
	C73.105,33.859,72.374,33.562,71.512,33.431 M40.29,3.593c-0.004-0.135,0-0.269,0-0.455c5.126-1.055,10.212-1.253,15.313,0.151
	c-0.353,4.771-1.087,9.419-1.721,14.132c-0.435,0.103-0.869,0.222-1.31,0.305c-1.911,0.362-3.837,0.457-5.781,0.366
	c-1.782-0.083-3.504-0.459-5.215-0.925c-0.105-0.029-0.208-0.067-0.314-0.097c-0.161-0.047-0.257-0.137-0.256-0.321
	c0.001-0.164-0.021-0.328-0.031-0.492c-0.082-1.288-0.159-2.575-0.244-3.862c-0.086-1.288-0.203-2.574-0.265-3.862
	C40.385,6.887,40.346,5.24,40.29,3.593 M53.753,18.175c-0.097,1.245-0.325,2.465-0.425,3.715c-2.555,0.828-9.272,0.457-12.15-0.665
	c-0.024-0.572-0.05-1.159-0.072-1.745c-0.023-0.588-0.042-1.177-0.065-1.829C45.238,19.063,49.45,19.113,53.753,18.175
	 M32.189,42.046c-0.264-0.2-0.499-0.387-0.743-0.564c-1.488-1.082-2.979-2.158-4.464-3.24c-0.755-0.55-1.497-1.117-2.258-1.66
	c-0.737-0.526-1.493-1.025-2.237-1.541c-0.302-0.209-0.599-0.427-0.892-0.649c-0.228-0.172-0.44-0.146-0.587,0.096
	c-0.057,0.094-0.098,0.197-0.143,0.297c-0.265,0.583-0.69,1.013-1.241,1.332c-0.295,0.169-0.602,0.255-0.943,0.232
	c-0.523-0.036-0.801-0.383-0.69-0.894c0.133-0.613,0.482-1.071,1.032-1.367c0.23-0.123,0.475-0.216,0.711-0.326
	c0.098-0.046,0.228-0.074,0.282-0.152c0.069-0.099,0.113-0.247,0.101-0.367c-0.015-0.157-0.164-0.214-0.312-0.203
	c-0.107,0.008-0.212,0.048-0.317,0.077c-0.343,0.097-0.685,0.201-1.029,0.293c-0.4,0.106-0.798,0.045-1.176-0.077
	c-0.547-0.177-0.667-0.667-0.295-1.096c0.374-0.431,0.841-0.613,1.402-0.472c0.425,0.107,0.842,0.244,1.264,0.367
	c0.144,0.042,0.286,0.095,0.435,0.118c0.18,0.026,0.33-0.045,0.392-0.227c0.064-0.19-0.038-0.316-0.198-0.402
	c-0.072-0.039-0.151-0.063-0.227-0.094c-0.367-0.151-0.744-0.286-1.101-0.46c-0.28-0.138-0.553-0.303-0.798-0.497
	c-0.337-0.266-0.408-0.555-0.273-0.866c0.147-0.336,0.477-0.55,0.862-0.508c0.534,0.059,0.998,0.286,1.39,0.656
	c0.46,0.431,0.75,0.976,1.023,1.53c0.043,0.087,0.074,0.178,0.122,0.262c0.082,0.145,0.212,0.215,0.379,0.182
	c0.173-0.033,0.244-0.155,0.269-0.321c0.054-0.352,0.096-0.706,0.174-1.054c0.112-0.505,0.327-0.96,0.76-1.28
	c0.403-0.3,0.839-0.18,1.034,0.286c0.127,0.304,0.112,0.618,0.046,0.93c-0.117,0.562-0.379,1.056-0.724,1.509
	c-0.151,0.196-0.313,0.383-0.46,0.581c-0.223,0.303-0.199,0.458,0.096,0.698c0.032,0.027,0.067,0.049,0.1,0.072
	c2.066,1.453,4.133,2.904,6.199,4.359c0.593,0.419,1.183,0.846,1.768,1.278c0.094,0.069,0.19,0.167,0.231,0.272
	c0.352,0.908,0.692,1.82,1.033,2.732C32.2,41.924,32.189,41.967,32.189,42.046 M72.348,35.393c-0.212,0.112-0.46,0.184-0.698,0.211
	c-0.524,0.06-1.042-0.002-1.542-0.178c-0.129-0.046-0.262-0.09-0.396-0.107c-0.165-0.02-0.324,0.055-0.352,0.217
	c-0.019,0.112,0.041,0.26,0.11,0.362c0.056,0.083,0.183,0.116,0.272,0.178c0.29,0.207,0.591,0.401,0.86,0.631
	c0.25,0.212,0.377,0.5,0.365,0.839c-0.011,0.305-0.087,0.587-0.38,0.725c-0.316,0.149-0.65,0.142-0.936-0.077
	c-0.161-0.122-0.308-0.28-0.414-0.451c-0.208-0.338-0.4-0.687-0.568-1.047c-0.203-0.438-0.402-0.503-0.789-0.212
	c-0.154,0.115-0.303,0.236-0.451,0.36c-2.602,2.175-5.176,4.384-7.685,6.667c-0.942,0.859-1.935,1.667-2.934,2.459
	c-0.593,0.468-0.98,1.037-1.268,1.728c-1.311,3.138-2.66,6.261-3.979,9.397c-1.106,2.629-2.17,5.277-3.3,7.896
	c-0.369,0.852-0.531,1.73-0.61,2.627c-0.168,1.9-0.288,3.805-0.43,5.708c-0.125,1.682-0.271,3.365-0.376,5.049
	c-0.092,1.464-0.146,2.932-0.206,4.4c-0.026,0.644-0.029,1.289-0.032,1.934c-0.002,0.205,0.015,0.413,0.049,0.616
	c0.054,0.321,0.246,0.405,0.531,0.256c1.314-0.679,2.707-0.982,4.178-0.789c0.766,0.099,1.502,0.353,2.15,0.783
	c0.794,0.531,1.151,1.318,1.111,2.259c-0.042,0.975-0.524,1.675-1.429,2.084c-1.217,0.549-2.493,0.664-3.789,0.461
	c-1.625-0.253-3.164-0.813-4.626-1.549c-1.169-0.588-0.955-0.403-0.918-1.515c0.063-1.865,0.157-3.731,0.294-5.592
	c0.2-2.724,0.406-5.447,0.53-8.177c0.102-2.234,0.255-4.467,0.383-6.7c0.007-0.123,0.016-0.249-0.003-0.37
	c-0.024-0.149-0.129-0.251-0.282-0.257c-0.153-0.005-0.26,0.085-0.291,0.239c-0.024,0.121-0.04,0.245-0.047,0.368
	c-0.121,1.903-0.245,3.807-0.359,5.712c-0.115,1.918-0.208,3.838-0.33,5.755c-0.067,1.042-0.186,2.079-0.26,3.119
	c-0.087,1.246-0.16,2.494-0.223,3.741c-0.045,0.877-0.071,1.756-0.09,2.635c-0.004,0.19-0.076,0.304-0.23,0.398
	c-1.769,1.087-3.645,1.917-5.701,2.268c-1.385,0.237-2.723-0.015-3.939-0.704c-0.888-0.503-1.473-1.268-1.496-2.353
	c-0.012-0.549,0.173-1.026,0.55-1.421c0.865-0.908,1.925-1.428,3.17-1.594c1.023-0.134,2.029-0.077,3.024,0.167
	c0.691,0.168,1.378,0.361,2.064,0.551c0.354,0.098,0.563-0.033,0.573-0.413c0.018-0.686-0.002-1.374,0.023-2.059
	c0.09-2.359,0.196-4.718,0.287-7.077c0.068-1.825,0.133-3.65,0.181-5.475c0.04-1.495,0.051-2.992,0.082-4.489
	c0.007-0.28-0.039-0.531-0.162-0.79c-0.182-0.383-0.304-0.793-0.449-1.192c-2.284-6.335-4.7-12.62-7.149-18.893
	c-1.945-4.982-3.74-10.022-5.67-15.009c-1.044-2.7-2.028-5.42-3.004-8.144c-0.022-0.061-0.033-0.126-0.067-0.257h0.507
	c2.059-0.002,4.119-0.011,6.178-0.005c0.948,0.002,1.896,0.021,2.842,0.054c1.454,0.051,2.907,0.112,4.359,0.186
	c0.505,0.026,1.001,0.111,1.494,0.256c1.992,0.586,4.014,1.014,6.095,1.144c1.731,0.107,3.457,0.116,5.181-0.097
	c0.299-0.036,0.595-0.101,0.894-0.132c0.38-0.039,0.763-0.068,1.143-0.084c0.438-0.019,0.877-0.031,1.314-0.02
	c0.7,0.018,1.398,0.055,2.097,0.089c0.919,0.045,1.837,0.124,2.754,0.139c2.28,0.038,4.56,0.047,6.839,0.07
	c0.108,0.001,0.217,0.011,0.391,0.022c-0.088,0.202-0.158,0.374-0.238,0.54c-0.914,1.905-1.825,3.811-2.745,5.712
	c-1.603,3.308-3.206,6.616-4.818,9.921c-0.33,0.677-0.698,1.337-1.049,2.005c-0.025,0.048-0.055,0.094-0.079,0.143
	c-0.105,0.224-0.081,0.411,0.074,0.518c0.183,0.125,0.335,0.043,0.48-0.083c0.466-0.405,0.925-0.82,1.404-1.211
	c1.553-1.266,3.115-2.522,4.67-3.788c0.565-0.459,1.12-0.929,1.676-1.399c0.298-0.252,0.282-0.501-0.052-0.729
	c-0.413-0.283-0.763-0.627-1.042-1.04c-0.205-0.303-0.322-0.632-0.295-1.008c0.036-0.5,0.287-0.835,0.719-0.934
	c0.441-0.101,0.887,0.091,1.12,0.503c0.2,0.352,0.288,0.74,0.308,1.142c0.011,0.22-0.002,0.439,0.004,0.658
	c0.007,0.27,0.102,0.413,0.286,0.431c0.215,0.021,0.316-0.111,0.391-0.292c0.13-0.317,0.244-0.645,0.42-0.938
	c0.238-0.398,0.502-0.786,0.802-1.139c0.434-0.509,1.028-0.606,1.655-0.498c0.47,0.079,0.662,0.417,0.453,0.846
	c-0.123,0.25-0.308,0.501-0.531,0.666c-0.426,0.318-0.896,0.578-1.354,0.855c-0.128,0.078-0.275,0.125-0.404,0.202
	c-0.22,0.13-0.292,0.301-0.215,0.474c0.074,0.168,0.263,0.23,0.494,0.144c0.245-0.09,0.482-0.2,0.726-0.291
	c0.415-0.155,0.846-0.229,1.292-0.199c0.335,0.024,0.649,0.112,0.908,0.34C72.8,34.8,72.779,35.165,72.348,35.393"/>
<path class="st3" d="M56.36,33.467c-0.447,0.717-1.127,0.91-1.915,0.854c-0.591-0.042-1.065-0.331-1.488-0.722
	c-0.072-0.068-0.132-0.199-0.308-0.049c0.407,0.555,0.989,0.823,1.668,1.017c0,0.544,0.005,1.077-0.001,1.61
	c-0.025,2.252-0.367,4.453-1.073,6.593c-0.552,1.672-1.404,3.156-2.735,4.336c-0.733,0.647-1.589,1.087-2.527,1.33
	c-1.467,0.382-2.933,0.339-4.381-0.142c-1.807-0.601-3.307-1.6-4.246-3.304c-0.58-1.049-1.004-2.167-1.273-3.335
	c-0.433-1.882-0.564-3.798-0.479-5.725c0.022-0.544,0.098-1.086,0.148-1.619c1.006-0.194,1.781-0.786,1.776-1.347
	c-0.208,0.003-0.251,0.195-0.346,0.314c-0.422,0.527-0.951,0.816-1.638,0.782c-0.698-0.037-1.244-0.383-1.736-0.846
	c-0.06-0.057-0.133-0.103-0.2-0.153c-0.037,0.111-0.037,0.199,0.005,0.247c0.403,0.452,0.909,0.742,1.515,0.938
	c-0.007,0.099-0.009,0.167-0.015,0.234c-0.062,0.738-0.147,1.476-0.182,2.214c-0.051,1.086,0.034,2.167,0.164,3.245
	c0.223,1.858,0.761,3.618,1.622,5.279c0.657,1.273,1.65,2.229,2.881,2.919c1.863,1.042,3.846,1.485,5.986,1.071
	c1.257-0.243,2.378-0.753,3.341-1.585c1.197-1.034,2.062-2.314,2.632-3.782c1.069-2.748,1.519-5.602,1.404-8.547
	c-0.009-0.243-0.002-0.486-0.002-0.724c1.008-0.204,1.633-0.686,1.529-1.198C56.439,33.408,56.384,33.428,56.36,33.467"/>
<path class="st3" d="M42.928,30.081c0.536,0.658,1.132,0.644,1.644,0.114c0.11-0.114,0.181-0.275,0.238-0.426
	c0.186-0.489,0.3-0.995,0.282-1.476c0-0.13,0.007-0.214-0.001-0.295c-0.046-0.491-0.081-0.988-0.316-1.433
	c-0.437-0.831-1.235-0.864-1.734-0.08c-0.037,0.057-0.072,0.117-0.103,0.177c-0.448,0.894-0.555,1.828-0.307,2.795
	C42.689,29.677,42.787,29.907,42.928,30.081"/>
<path class="st3" d="M48.357,30.146c0.317,0.505,0.931,0.54,1.319,0.09c0.132-0.153,0.247-0.33,0.334-0.514
	c0.251-0.523,0.398-1.076,0.378-1.664c-0.01-0.62-0.063-1.231-0.392-1.781c-0.262-0.434-0.754-0.554-1.163-0.257
	c-0.171,0.125-0.324,0.302-0.426,0.487c-0.484,0.872-0.618,1.81-0.422,2.78C48.046,29.587,48.193,29.884,48.357,30.146"/>
<path class="st3" d="M54.818,27.197c0.357,1.17-0.217,2.333-1.043,2.785c-0.05,0.027-0.082,0.089-0.136,0.15
	c0.295,0.031,0.426-0.011,0.638-0.223c0.772-0.768,1.064-1.689,0.774-2.744c-0.182-0.668-0.645-1.102-1.34-1.246
	c-0.061-0.013-0.134,0.038-0.202,0.059c-0.003,0.028-0.007,0.055-0.01,0.083c0.119,0.048,0.236,0.105,0.358,0.143
	C54.361,26.361,54.672,26.721,54.818,27.197"/>
<path class="st3" d="M39.249,29.486c0.075,0.069,0.16,0.165,0.257,0.057c-0.225-0.348-0.478-0.67-0.652-1.03
	c-0.19-0.394-0.151-0.824-0.057-1.25c0.094-0.419,0.31-0.751,0.607-1.05c0.31-0.314,0.739-0.367,1.135-0.496
	c-0.012-0.04-0.023-0.078-0.035-0.118c-0.062-0.013-0.127-0.044-0.186-0.035c-0.385,0.059-0.738,0.187-1.037,0.455
	c-0.599,0.536-0.821,1.221-0.768,1.996C38.554,28.595,38.816,29.09,39.249,29.486"/>
</svg>
